<svg width="92" height="92" viewBox="0 0 92 92" fill="none" xmlns="http://www.w3.org/2000/svg">
<g clip-path="url(#clip0_3_1097)">
<path d="M85.2661 59.0365L58.8103 85.2962M85.2661 59.0365L72.0377 45.9061M85.2661 59.0365L88.5731 62.3189M58.8103 85.2962L45.5819 72.1659M58.8103 85.2962L62.1172 88.5787M72.0377 45.9061L45.5819 72.1659M72.0377 45.9061C64.732 38.6546 52.8875 38.6546 45.5819 45.9061M45.5819 72.1659C38.2762 64.9144 38.2762 53.1576 45.5819 45.9061M45.5819 45.9061C52.8875 38.6546 52.8875 26.8975 45.5819 19.646M45.5819 45.9061C38.2762 53.1576 26.4313 53.1576 19.1256 45.9061M45.5819 19.646L19.1256 45.9061M45.5819 19.646L32.354 6.51622M19.1256 45.9061L5.89785 32.7763M32.354 6.51622L5.89785 32.7763M32.354 6.51622L29.0467 3.23352M5.89785 32.7763L2.59064 29.4935" stroke="white" stroke-width="5" stroke-linecap="round" stroke-linejoin="round"/>
</g>
<defs>
<clipPath id="clip0_3_1097">
<rect width="92" height="92" fill="white"/>
</clipPath>
</defs>
</svg>
