<svg width="101" height="97" viewBox="0 0 101 97" fill="none" xmlns="http://www.w3.org/2000/svg">
<path fill-rule="evenodd" clip-rule="evenodd" d="M39.7141 74.2975C29.269 65.8999 15 52.0276 15 38.9115C15 18.2232 34.5256 8.81923 50.5 25.7457C66.4743 8.81923 86 18.2226 86 38.9114C86 52.028 71.7311 65.8999 61.286 74.2975C56.5574 78.0992 54.1931 80 50.5 80C46.8069 80 44.4426 78.0992 39.7141 74.2975ZM43.7309 44.112C44.0486 43.6644 44.3127 43.2927 44.5477 42.9746C44.7465 43.3158 44.9684 43.7134 45.2353 44.1922L51.3069 55.0755C51.8962 56.1328 52.4745 57.1698 53.0549 57.9223C53.6762 58.7273 54.7682 59.8309 56.5187 59.8631C58.2688 59.8956 59.4023 58.8334 60.0538 58.0518C60.6626 57.3214 61.2796 56.3068 61.909 55.2722L62.1057 54.9487C62.8895 53.6607 63.3829 52.8554 63.8196 52.2737C64.2222 51.7379 64.4547 51.5629 64.6283 51.4662C64.8015 51.3693 65.0735 51.2629 65.7465 51.1982C66.4771 51.1282 67.4314 51.1254 68.955 51.1254H71.8C73.2704 51.1254 74.4625 49.9501 74.4625 48.5004C74.4625 47.0506 73.2704 45.8754 71.8 45.8754H68.84C67.4658 45.8754 66.2503 45.8753 65.2314 45.973C64.1267 46.0787 63.0517 46.3129 62.0045 46.8977C60.9572 47.4822 60.2004 48.2704 59.5401 49.15C58.9309 49.9609 58.3057 50.9885 57.5986 52.1505L57.43 52.4277C57.1222 52.9338 56.8652 53.3552 56.6358 53.7171C56.42 53.3471 56.1796 52.9163 55.891 52.3994L49.8227 41.521C49.2756 40.5396 48.7303 39.5619 48.1776 38.8451C47.5734 38.0621 46.5378 37.0268 44.8782 36.9384C43.2185 36.8501 42.0758 37.7695 41.3897 38.4838C40.7617 39.1377 40.1131 40.0519 39.4619 40.9694L38.3637 42.5164C37.5573 43.6521 37.0517 44.3598 36.6141 44.8702C36.2113 45.3399 35.9874 45.4939 35.8221 45.5786C35.6568 45.6636 35.4005 45.756 34.7791 45.812C34.1041 45.8729 33.2262 45.8754 31.82 45.8754H29.2C27.7296 45.8754 26.5375 47.0506 26.5375 48.5004C26.5375 49.9501 27.7296 51.1254 29.2 51.1254H31.9268C33.1941 51.1254 34.3174 51.1253 35.2634 51.0403C36.2896 50.9479 37.2906 50.7439 38.2812 50.2353C39.2718 49.7267 40.0155 49.0355 40.6807 48.2596C41.294 47.5442 41.9381 46.637 42.6648 45.6132L43.7309 44.112Z" fill="white"/>
</svg>
