<svg width="334" height="334" viewBox="0 0 334 334" fill="none" xmlns="http://www.w3.org/2000/svg">
<path d="M258.667 192H192V258.667H142V192H75.3333V142H142V75.3334H192V142H258.667V192ZM167 0.333374C134.036 0.333374 101.813 10.1082 74.405 28.4218C46.9968 46.7353 25.6347 72.7651 13.0201 103.219C0.405466 133.674 -2.89509 167.185 3.53578 199.515C9.96665 231.845 25.8401 261.542 49.1489 284.851C72.4576 308.16 102.155 324.033 134.485 330.464C166.815 336.895 200.326 333.595 230.781 320.98C261.235 308.365 287.265 287.003 305.578 259.595C323.892 232.187 333.667 199.964 333.667 167C333.667 145.113 329.356 123.44 320.98 103.219C312.604 82.9985 300.328 64.6253 284.851 49.1489C269.375 33.6725 251.001 21.3959 230.781 13.0201C210.56 4.64434 188.887 0.333374 167 0.333374Z" fill="url(#paint0_linear_78_56)"/>
<defs>
<linearGradient id="paint0_linear_78_56" x1="5.25671e-09" y1="167" x2="351" y2="167" gradientUnits="userSpaceOnUse">
<stop stop-color="white"/>
<stop offset="1" stop-color="#484848"/>
</linearGradient>
</defs>
</svg>
