<svg width="20" height="21" viewBox="0 0 20 21" fill="none" xmlns="http://www.w3.org/2000/svg">
<path d="M15.5 11.9376H11.5V15.7709H8.5V11.9376H4.5V9.06258H8.5V5.22925H11.5V9.06258H15.5V11.9376ZM10 0.916748C8.02219 0.916748 6.08879 1.4788 4.4443 2.53183C2.79981 3.58486 1.51809 5.08157 0.761209 6.8327C0.00433284 8.58382 -0.1937 10.5107 0.192152 12.3697C0.578004 14.2287 1.53041 15.9363 2.92894 17.2765C4.32746 18.6168 6.10929 19.5295 8.0491 19.8993C9.98891 20.269 11.9996 20.0793 13.8268 19.3539C15.6541 18.6286 17.2159 17.4003 18.3147 15.8243C19.4135 14.2483 20 12.3955 20 10.5001C20 9.24158 19.7413 7.9954 19.2388 6.8327C18.7363 5.66999 17.9997 4.61354 17.0711 3.72364C16.1425 2.83375 15.0401 2.12784 13.8268 1.64624C12.6136 1.16463 11.3132 0.916748 10 0.916748Z" fill="white"/>
</svg>
