<svg width="24" height="23" viewBox="0 0 24 23" fill="none" xmlns="http://www.w3.org/2000/svg">
<g clip-path="url(#clip0_40_113)">
<path d="M17.5 12.9376H13.5V16.7709H10.5V12.9376H6.5V10.0626H10.5V6.22925H13.5V10.0626H17.5V12.9376ZM12 1.91675C10.0222 1.91675 8.08879 2.4788 6.4443 3.53183C4.79981 4.58486 3.51809 6.08157 2.76121 7.8327C2.00433 9.58382 1.8063 11.5107 2.19215 13.3697C2.578 15.2287 3.53041 16.9363 4.92894 18.2765C6.32746 19.6168 8.10929 20.5295 10.0491 20.8993C11.9889 21.269 13.9996 21.0793 15.8268 20.3539C17.6541 19.6286 19.2159 18.4003 20.3147 16.8243C21.4135 15.2483 22 13.3955 22 11.5001C22 10.2416 21.7413 8.9954 21.2388 7.8327C20.7362 6.66999 19.9997 5.61354 19.0711 4.72364C18.1425 3.83375 17.0401 3.12784 15.8268 2.64624C14.6136 2.16463 13.3132 1.91675 12 1.91675Z" fill="white"/>
</g>
<defs>
<clipPath id="clip0_40_113">
<rect width="24" height="23" fill="white"/>
</clipPath>
</defs>
</svg>
